# xmcd
#
# Track frame offsets:
#	150
#	12227
#	28800
#	39257
#	48402
#	60535
#	70815
#	82080
#	93210
#	105820
#	123380
#	132250
#	148620
#	163712
#	174257
#	182750
#	191960
#	211117
#	222200
#	238285
#	254130
#	262807
#	274155
#	287367
#
# Disc length: 4007 seconds
#
# Revision: 3
# Processed by: cddbd v1.5.2PL0 Copyright (c) Steve Scherf et al.
# Submitted via: EasyCDDAExtractor 15.2.5.1
#
DISCID=590fa518
DTITLE=John D Loudermilk - It's My Time
DYEAR=1989
DGENRE=Country
TTITLE0=It's My Time
TTITLE1=No Playing In The Snow Today
TTITLE2=The Little Grave
TTITLE3=I'm Looking For A World
TTITLE4=What Is It?
TTITLE5=Bubble, Please Break
TTITLE6=Ma Baker's Little Acre
TTITLE7=Mary's No Longer Mine
TTITLE8=To Hell With Love
TTITLE9=Talkin' Silver Cloud Blues
TTITLE10=Joey Stays With Me
TTITLE11=The Lament Of The Cherokee Reservation Indian
TTITLE12=The Jones
TTITLE13=You're The Guilty One
TTITLE14=Where Have They Gone
TTITLE15=The Little Bird
TTITLE16=Brown Girl
TTITLE17=Givin' You All My Love
TTITLE18=I Chose You
TTITLE19=Honey
TTITLE20=That Ain't All
TTITLE21=Interstate 40
TTITLE22=Do You
TTITLE23=Tobacco Road
EXTD=Produced By: Chet Atkins/Bob Ferguson\nRe-issue Produced By: Richard Weiz
EXTD=e\nPhotos: Richard Weize Collection\nMastered By: Bob Jones\nLiner Notes:
EXTD=Otto Kitsinger\nSpecial Thanks To John D. Loudermilk\nLicensed From: BMG
EXTD=/Ariola Hamburh Gmbh\nOriginal RCA VICTOR RECORDINGS\n\n** BEAR FAMILY RE
EXTD=CORDS**\n   P.O. BOX 1154\n  2864 VOLLERSODE\n  WEST GERMANY\n\nBCD 15422
EXTT0=
EXTT1=
EXTT2=
EXTT3=
EXTT4=
EXTT5=
EXTT6=
EXTT7=
EXTT8=
EXTT9=
EXTT10=
EXTT11=
EXTT12=
EXTT13=
EXTT14=
EXTT15=
EXTT16=
EXTT17=
EXTT18=
EXTT19=
EXTT20=
EXTT21=
EXTT22=
EXTT23=
PLAYORDER=
